<svg xmlns="http://www.w3.org/2000/svg" width="26" height="26" viewBox="0 0 26 26"><defs><style>.a{fill:#fff;opacity:0;}.b{fill:none;stroke:#bfbfd1;stroke-linecap:round;stroke-linejoin:round;stroke-width:1.5px;}</style></defs><g transform="translate(4859 -2360)"><rect class="a" width="26" height="26" transform="translate(-4859 2360)"/><g transform="translate(-4855 2364)"><path class="b" d="M303.755,2851.96a1.205,1.205,0,0,1,1.2-1.2h15.664a1.206,1.206,0,0,1,1.2,1.2v13.254a1.205,1.205,0,0,1-1.2,1.206H304.96a1.205,1.205,0,0,1-1.2-1.206Z" transform="translate(-303.755 -2848.341)"/><path class="b" d="M303.755,2856.75h18.074" transform="translate(-303.755 -2849.521)"/><path class="b" d="M309.755,2851.97v-4.217" transform="translate(-304.935 -2847.75)"/><path class="b" d="M320.255,2851.97v-4.217" transform="translate(-307.001 -2847.75)"/><path class="b" d="M308.556,2860.5a.3.3,0,1,0,.3.3.3.3,0,0,0-.3-.3" transform="translate(-304.64 -2850.259)"/><path class="b" d="M308.556,2865.75a.3.3,0,1,0,.3.3.3.3,0,0,0-.3-.3" transform="translate(-304.64 -2851.292)"/><path class="b" d="M314.931,2860.5a.3.3,0,1,0,.3.3.3.3,0,0,0-.3-.3" transform="translate(-305.895 -2850.259)"/><path class="b" d="M314.931,2865.75a.3.3,0,1,0,.3.3.3.3,0,0,0-.3-.3" transform="translate(-305.895 -2851.292)"/><path class="b" d="M321.306,2860.5a.3.3,0,1,0,.3.3.3.3,0,0,0-.3-.3" transform="translate(-307.149 -2850.259)"/><path class="b" d="M321.306,2865.75a.3.3,0,1,0,.3.3.3.3,0,0,0-.3-.3" transform="translate(-307.149 -2851.292)"/></g></g></svg>