<svg xmlns="http://www.w3.org/2000/svg" width="26" height="26" viewBox="0 0 26 26"><defs><style>.a{fill:#fff;opacity:0;}.b{fill:none;stroke:#bfbfd1;stroke-linecap:round;stroke-linejoin:round;stroke-width:1.5px;}</style></defs><g transform="translate(4866 -1841)"><rect class="a" width="26" height="26" transform="translate(-4866 1841)"/><g transform="translate(-4864 1847)"><path class="b" d="M363.005,231.5a11.336,11.336,0,0,0-11.25,11.423V245a1.5,1.5,0,0,0,1.5,1.5h19.5a1.5,1.5,0,0,0,1.5-1.5v-2.08A11.336,11.336,0,0,0,363,231.5Z" transform="translate(-351.755 -231.5)"/><path class="b" d="M360.005,246.5v-.75a3,3,0,0,1,6,0v.75" transform="translate(-351.755 -231.5)"/><path class="b" d="M365.255,236l-2.25,6.75" transform="translate(-351.755 -231.5)"/><path class="b" d="M355.88,242a.375.375,0,1,0,.375.375.375.375,0,0,0-.375-.375" transform="translate(-351.755 -231.5)"/><path class="b" d="M357.38,238.253a.375.375,0,1,0,.375.375.375.375,0,0,0-.375-.375" transform="translate(-351.755 -231.5)"/><path class="b" d="M370.13,242a.375.375,0,1,0,.375.375.375.375,0,0,0-.375-.375" transform="translate(-351.755 -231.5)"/><path class="b" d="M368.63,238.253a.375.375,0,1,0,.375.375.375.375,0,0,0-.375-.375" transform="translate(-351.755 -231.5)"/><path class="b" d="M360.38,235.253a.375.375,0,1,0,.375.375.375.375,0,0,0-.375-.375" transform="translate(-351.755 -231.5)"/></g></g></svg>