<svg xmlns="http://www.w3.org/2000/svg" width="32" height="32" viewBox="0 0 32 32"><defs><style>.a{fill:rgba(244,190,94,0.1);opacity:0;}.b{fill:none;stroke:#E98074;stroke-linecap:round;stroke-linejoin:round;stroke-width:1.5px;}</style></defs><g transform="translate(-16236 18780)"><rect class="a" width="32" height="32" rx="10" transform="translate(16236 -18780)"/><g transform="translate(15937.245 -22962.75)"><path class="b" d="M316.05,4205.637l-3.712.53.53-3.712,9.546-9.546a2.25,2.25,0,0,1,3.182,3.182Z"/><path class="b" d="M308.255,4188.5a.75.75,0,0,1,.75-.75h6a.75.75,0,0,1,.75.75v1.5a.75.75,0,0,1-.75.75h-6a.75.75,0,0,1-.75-.75Z"/><path class="b" d="M315.755,4189.25h3a1.5,1.5,0,0,1,1.5,1.5"/><path class="b" d="M320.255,4205.75v3a1.5,1.5,0,0,1-1.5,1.5h-13.5a1.5,1.5,0,0,1-1.5-1.5v-18a1.5,1.5,0,0,1,1.5-1.5h3"/><path class="b" d="M308.255,4195.25h7.5"/><path class="b" d="M308.255,4199.75h3"/></g></g></svg>