<svg xmlns="http://www.w3.org/2000/svg" width="32" height="32" viewBox="0 0 32 32"><defs><style>.a{fill:#f2fdf7;opacity:0;}.b{fill:none;stroke:#44d7b6;stroke-linecap:round;stroke-linejoin:round;stroke-width:1.5px;}</style></defs><g transform="translate(-16405 18877)"><g transform="translate(16405 -18877)"><rect class="a" width="32" height="32" rx="10"/></g><g transform="translate(15914.243 -23059.75)"><path class="b" d="M515.257,4196v-3.751a1.5,1.5,0,0,0-1.5-1.5h-4"/><path class="b" d="M501.257,4190.75h-4a1.5,1.5,0,0,0-1.5,1.5v16.5a1.5,1.5,0,0,0,1.5,1.5h8.248"/><path class="b" d="M509.428,4191.737a.751.751,0,0,1-.711.513H502.3a.751.751,0,0,1-.712-.513l-1-3a.748.748,0,0,1,.712-.987h8.419a.749.749,0,0,1,.711.987Z"/><path class="b" d="M503.257,4207.25h-3.752a.75.75,0,0,1-.75-.75v-12.75"/><path class="b" d="M512.257,4193.75v1.5"/><path class="b" d="M512.255,4210.25a6,6,0,1,0-6-6A6,6,0,0,0,512.255,4210.25Z"/><path class="b" d="M514.929,4202.5l-2.905,3.874a.751.751,0,0,1-1.131.08l-1.5-1.5"/><path class="b" d="M501.757,4196.75h4.5"/><path class="b" d="M501.757,4201.25h1.5" transform="translate(0 -1.23)"/></g></g></svg>